# xmcd CD database file
#
# Track frame offsets:
#	150
#	11285
#	22352
#	36847
#	47742
#	62307
#	72490
#	86722
#	97700
#	116715
#	129640
#
# Disc length: 1954 seconds
#
# Revision: 0
# Processed by: cddbd v1.5.2PL0 Copyright (c) Steve Scherf et al.
# Submitted via: jetAudio 7
#
DISCID=8e07a00b
DTITLE=Floyd Cramer - Just Me And My Piano
DYEAR=1900
DGENRE=Country
TTITLE0=Root Beer Rag
TTITLE1=Time In A Bottle
TTITLE2=For The Good Times
TTITLE3=Last Date
TTITLE4=Always On My Mind
TTITLE5=Blue Eyes Crying In The Rain
TTITLE6=It Was Almost Like A Song
TTITLE7=The Homecoming
TTITLE8=Hank Williams Tribute: Your Cheating Heart - You Win Again - I'm 
TTITLE8=So Lonesome I Could Cry - Why Don't You Love Me - Jambalaya - I Sa
TTITLE8=w The Light
TTITLE9=T.D.'s Boogie Woogie
TTITLE10=Georgia On My Mind
EXTD=
EXTT0=
EXTT1=
EXTT2=
EXTT3=
EXTT4=
EXTT5=
EXTT6=
EXTT7=
EXTT8=
EXTT9=
EXTT10=
PLAYORDER=
